<?xml version="1.0" standalone="no"?>
<!DOCTYPE svg PUBLIC "-//W3C//DTD SVG 20010904//EN"
 "http://www.w3.org/TR/2001/REC-SVG-20010904/DTD/svg10.dtd">
<svg version="1.0" xmlns="http://www.w3.org/2000/svg"
 width="800.000000pt" height="800.000000pt" viewBox="0 0 800.000000 800.000000"
 preserveAspectRatio="xMidYMid meet">

<g transform="translate(0.000000,800.000000) scale(0.100000,-0.100000)"
fill="#000000" stroke="none">
<path d="M0 4000 l0 -4000 4000 0 4000 0 0 4000 0 4000 -4000 0 -4000 0 0
-4000z m2730 2465 l0 -665 -130 0 -130 0 0 665 0 665 130 0 130 0 0 -665z
m400 0 l0 -665 -130 0 -130 0 0 665 0 665 130 0 130 0 0 -665z m400 0 l0 -665
-130 0 -130 0 0 665 0 665 130 0 130 0 0 -665z m400 0 l0 -665 -130 0 -130 0
0 665 0 665 130 0 130 0 0 -665z m400 0 l0 -665 -130 0 -130 0 0 665 0 665
130 0 130 0 0 -665z m400 0 l0 -665 -130 0 -130 0 0 665 0 665 130 0 130 0 0
-665z m400 0 l0 -665 -130 0 -130 0 0 665 0 665 130 0 130 0 0 -665z m400 0
l0 -665 -130 0 -130 0 0 665 0 665 130 0 130 0 0 -665z m-930 -1790 l0 -1005
-380 0 -381 0 -24 25 c-27 27 -30 41 -15 80 7 18 27 34 64 50 30 13 60 33 65
44 6 11 11 67 11 124 l0 105 -38 49 c-21 26 -56 61 -77 77 -44 34 -152 76
-195 76 -56 0 -60 6 -60 89 l0 77 77 -9 c70 -8 231 -44 276 -62 16 -7 17 22
17 530 0 326 -4 543 -10 554 -5 10 -34 28 -64 41 -66 26 -89 65 -65 109 28 50
38 51 432 51 l367 0 0 -1005z m393 968 c153 -51 341 -203 425 -345 160 -270
198 -699 90 -1028 -66 -205 -198 -381 -364 -490 -118 -77 -223 -110 -350 -110
l-64 0 0 79 0 78 45 13 c51 14 86 50 107 107 18 53 19 1367 1 1429 -22 71 -53
107 -106 124 l-47 15 0 84 0 84 90 -6 c56 -4 121 -17 173 -34z m-2793 -243 l0
-130 -665 0 -665 0 0 130 0 130 665 0 665 0 0 -130z m4930 0 l0 -130 -665 0
-665 0 0 130 0 130 665 0 665 0 0 -130z m-4930 -400 l0 -130 -665 0 -665 0 0
130 0 130 665 0 665 0 0 -130z m4930 0 l0 -130 -665 0 -665 0 0 130 0 130 665
0 665 0 0 -130z m-4930 -400 l0 -130 -665 0 -665 0 0 130 0 130 665 0 665 0 0
-130z m4930 0 l0 -130 -665 0 -665 0 0 130 0 130 665 0 665 0 0 -130z m-3680
-214 c0 -80 -1 -84 -24 -90 -33 -8 -83 -68 -96 -115 -7 -27 -10 -283 -8 -793
3 -827 0 -789 65 -829 l33 -21 0 -84 0 -84 -42 6 c-263 36 -511 221 -638 474
-180 358 -153 898 62 1227 145 223 398 382 621 392 l27 1 0 -84z m-1250 -186
l0 -130 -665 0 -665 0 0 130 0 130 665 0 665 0 0 -130z m4930 0 l0 -130 -665
0 -665 0 0 130 0 130 665 0 665 0 0 -130z m-4930 -400 l0 -130 -665 0 -665 0
0 130 0 130 665 0 665 0 0 -130z m4930 0 l0 -130 -665 0 -665 0 0 130 0 130
665 0 665 0 0 -130z m-4930 -400 l0 -130 -665 0 -665 0 0 130 0 130 665 0 665
0 0 -130z m4930 0 l0 -130 -665 0 -665 0 0 130 0 130 665 0 665 0 0 -130z
m-2820 10 c13 -13 20 -33 20 -59 0 -33 -7 -46 -45 -82 l-45 -43 0 -281 0 -281
-32 -31 c-45 -43 -178 -127 -263 -167 -75 -36 -242 -81 -337 -90 l-58 -6 0 84
0 84 37 19 c20 10 46 31 57 46 20 27 21 44 24 316 3 277 2 288 -18 313 -13 17
-34 29 -62 33 -44 8 -98 51 -98 79 0 27 22 64 44 74 13 7 157 11 389 11 354 1
368 0 387 -19z m-2110 -410 l0 -130 -665 0 -665 0 0 130 0 130 665 0 665 0 0
-130z m4930 0 l0 -130 -665 0 -665 0 0 130 0 130 665 0 665 0 0 -130z m-4930
-400 l0 -130 -665 0 -665 0 0 130 0 130 665 0 665 0 0 -130z m4930 0 l0 -130
-665 0 -665 0 0 130 0 130 665 0 665 0 0 -130z m-4400 -1065 l0 -665 -130 0
-130 0 0 665 0 665 130 0 130 0 0 -665z m400 0 l0 -665 -130 0 -130 0 0 665 0
665 130 0 130 0 0 -665z m400 0 l0 -665 -130 0 -130 0 0 665 0 665 130 0 130
0 0 -665z m400 0 l0 -665 -130 0 -130 0 0 665 0 665 130 0 130 0 0 -665z m400
0 l0 -665 -130 0 -130 0 0 665 0 665 130 0 130 0 0 -665z m400 0 l0 -665 -130
0 -130 0 0 665 0 665 130 0 130 0 0 -665z m400 0 l0 -665 -130 0 -130 0 0 665
0 665 130 0 130 0 0 -665z m400 0 l0 -665 -130 0 -130 0 0 665 0 665 130 0
130 0 0 -665z"/>
</g>
</svg>
